<?xml version="1.0"?>
<svg width="1080" height="1080" xmlns="http://www.w3.org/2000/svg" xmlns:svg="http://www.w3.org/2000/svg" version="1.1" xml:space="preserve">
 <desc>Created with Fabric.js 5.2.4</desc>

  <g class="layer">
  <title>Layer 1</title>
    <g id="afd49a50-334f-4647-b5be-c08933d7941c" transform="matrix(1 0 0 1 540 540)"/>
    <g id="svg_27" transform="matrix(NaN NaN NaN NaN 0 0)">
   <g id="svg_28"/>
  </g>
    <g id="svg_29" transform="matrix(11.37 0 0 11.37 540 540)">
   <path d="m83.16,17.64c1.68,-1.43 2.78,-3.54 2.78,-5.92c0,-4.31 -3.51,-7.81 -7.81,-7.81c-4.31,0 -7.82,3.5 -7.82,7.81c0,2.38 1.1,4.49 2.78,5.92c-3.5,1.83 -5.9,5.49 -5.9,9.7l0,3.91l21.87,0l0,-3.91c0,-4.21 -2.4,-7.87 -5.9,-9.69l0,-0.01zm-9.72,-5.92c0,-2.59 2.1,-4.69 4.69,-4.69c2.58,0 4.68,2.1 4.68,4.69c0,2.58 -2.1,4.69 -4.68,4.69c-2.59,0 -4.69,-2.11 -4.69,-4.69zm12.5,16.41l-15.63,0l0,-0.79c0,-4.3 3.51,-7.81 7.82,-7.81c4.3,0 7.81,3.51 7.81,7.81l0,0.79zm-18.75,68.75l21.87,0l0,-60.94l-21.87,0l0,60.94zm3.12,-57.82l15.63,0l0,54.69l-15.63,0l0,-54.69zm-15.28,3.59c1.69,-1.44 2.78,-3.55 2.78,-5.93c0,-4.31 -3.5,-7.81 -7.81,-7.81c-4.31,0 -7.81,3.5 -7.81,7.81c0,2.38 1.09,4.49 2.77,5.93c-3.5,1.82 -5.9,5.48 -5.9,9.69l0,3.91l21.88,0l0,-3.91c0,-4.21 -2.41,-7.87 -5.91,-9.7l0,0.01zm-9.72,-5.93c0,-2.59 2.1,-4.69 4.69,-4.69c2.59,0 4.69,2.1 4.69,4.69c0,2.58 -2.1,4.69 -4.69,4.69c-2.59,0 -4.69,-2.1 -4.69,-4.69zm12.5,16.41l-15.62,0l0,-0.79c0,-4.31 3.5,-7.81 7.81,-7.81c4.31,0 7.81,3.51 7.81,7.81l0,0.79zm-18.75,43.75l21.88,0l0,-35.94l-21.88,0l0,35.94zm3.13,-32.82l15.62,0l0,29.69l-15.62,0l0,-29.69zm-15.28,-2.66c1.68,-1.44 2.78,-3.55 2.78,-5.93c0,-4.31 -3.51,-7.81 -7.82,-7.81c-4.3,0 -7.81,3.5 -7.81,7.81c0,2.38 1.1,4.49 2.78,5.93c-3.5,1.82 -5.9,5.48 -5.9,9.69l0,3.91l21.87,0l0,-3.91c0,-4.21 -2.4,-7.87 -5.9,-9.7l0,0.01zm-9.72,-5.93c0,-2.59 2.1,-4.69 4.68,-4.69c2.59,0 4.69,2.1 4.69,4.69c0,2.59 -2.1,4.69 -4.69,4.69c-2.58,0 -4.68,-2.1 -4.68,-4.69zm12.5,16.41l-15.63,0l0,-0.79c0,-4.3 3.51,-7.81 7.82,-7.81c4.3,0 7.81,3.51 7.81,7.81l0,0.79zm-18.75,25l21.87,0l0,-17.19l-21.87,0l0,17.19zm3.12,-14.07l15.63,0l0,10.94l-15.63,0l0,-10.94z" fill="#ffffff" fill-rule="nonzero" id="svg_30" stroke-dashoffset="0" stroke-miterlimit="4" transform=" translate(-50, -50.39)"/>
  </g>
    <g id="svg_31" transform="matrix(NaN NaN NaN NaN 0 0)">
   <g id="svg_32"/>
  </g>
 </g>
</svg>
