<svg xmlns="http://www.w3.org/2000/svg"
     width="100%"
     height="100%"
     viewBox="10.937000274658203 3.9070000648498535 78.12500762939453 92.96900177001953">
  <g fill="#770e50">
    <path
      d="M83.16 17.645c1.684-1.434 2.777-3.543 2.777-5.926 0-4.308-3.504-7.812-7.812-7.812s-7.813 3.504-7.813 7.812c0 2.383 1.094 4.492 2.778 5.926-3.5 1.824-5.903 5.484-5.903 9.7v3.905h21.875v-3.906c0-4.215-2.402-7.875-5.902-9.699zm-9.723-5.926c0-2.586 2.102-4.687 4.688-4.687s4.687 2.101 4.687 4.687-2.101 4.688-4.687 4.688-4.688-2.102-4.688-4.688zm12.5 16.406H70.312v-.781c0-4.309 3.504-7.813 7.813-7.813s7.812 3.504 7.812 7.813zm-18.75 68.75h21.875V35.937H67.187zm3.125-57.812h15.625v54.688H70.312zm-15.277 3.582c1.684-1.433 2.778-3.543 2.778-5.926 0-4.308-3.504-7.812-7.813-7.812s-7.812 3.504-7.812 7.812c0 2.383 1.093 4.493 2.777 5.926-3.5 1.824-5.902 5.485-5.902 9.7v3.906h21.875v-3.907c0-4.214-2.403-7.875-5.903-9.699zm-9.722-5.926c0-2.585 2.101-4.687 4.687-4.687s4.688 2.102 4.688 4.687-2.102 4.688-4.688 4.688-4.687-2.102-4.687-4.688zm12.5 16.406H42.188v-.78c0-4.31 3.503-7.813 7.812-7.813s7.813 3.504 7.813 7.812zm-18.75 43.75h21.875V60.937H39.063zm3.125-32.812h15.625v29.688H42.188zM26.91 61.395c1.683-1.433 2.777-3.543 2.777-5.925 0-4.309-3.504-7.813-7.813-7.813s-7.812 3.504-7.812 7.813c0 2.382 1.094 4.492 2.777 5.925-3.5 1.825-5.902 5.485-5.902 9.7V75h21.875v-3.906c0-4.215-2.402-7.875-5.902-9.7zm-9.723-5.925c0-2.586 2.101-4.688 4.687-4.688s4.688 2.102 4.688 4.688-2.102 4.687-4.688 4.687-4.687-2.101-4.687-4.687zm12.5 16.406H14.063v-.782c0-4.308 3.504-7.812 7.812-7.812s7.813 3.504 7.813 7.812zm-18.75 25h21.875V79.688H10.938zm3.125-14.062h15.625v10.938H14.063z"></path>
  </g>
</svg>
