<svg xmlns="http://www.w3.org/2000/svg" version="1.1" xlink="http://www.w3.org/1999/xlink" xmlns:svgjs="http://svgjs.com/svgjs" width="100%" height="100%" viewBox="9.78900146484375 9.57800006866455 80.4219970703125 80.843994140625"><g fill="#0e7733"><path d="M9.79 45.426c.39 8.625 3.972 16.426 9.597 22.262a36.914 36.914 0 0 1 9-5.852c-1.23-4.878-1.977-10.457-2.09-16.41zm0-3.242h16.507c.113-5.965.86-11.527 2.09-16.426a37.1 37.1 0 0 1-9-5.852c-5.625 5.836-9.211 13.637-9.598 22.277zM29.277 65a33.359 33.359 0 0 0-7.523 4.93 34.4 34.4 0 0 0 13.96 7.23c-2.609-2.87-4.816-7.054-6.437-12.16zm0-42.387c1.621-5.125 3.828-9.309 6.438-12.176a34.283 34.283 0 0 0-13.962 7.246 34.556 34.556 0 0 0 7.524 4.93zM42.523 9.578c-4.152 1.137-7.848 6.566-10.215 14.301a34.001 34.001 0 0 0 10.215 2.043zm0 19.586a37.49 37.49 0 0 1-11.074-2.156c-1.117 4.555-1.8 9.71-1.914 15.176h12.988zm0 16.262H29.535c.113 5.45.793 10.605 1.914 15.16a37.517 37.517 0 0 1 11.074-2.156zm0 32.594V61.676c-3.52.164-6.957.844-10.215 2.043 2.367 7.734 6.066 13.164 10.215 14.301zm3.247-.016c1.04-.293 2.074-.875 3.082-1.719a22.371 22.371 0 0 1-.648-5.254c0-3.18.664-6.195 1.847-8.933a33.907 33.907 0 0 0-4.28-.453zm0-68.426v16.344A33.996 33.996 0 0 0 56 23.88c-2.367-7.734-6.066-13.168-10.23-14.3zm0 48.82a37.38 37.38 0 0 1 5.871.715 22.635 22.635 0 0 1 6.68-6.922c.242-2.207.37-4.477.422-6.762H45.77zm0-16.214h13.004c-.113-5.465-.793-10.621-1.914-15.176a37.522 37.522 0 0 1-11.09 2.156zm13.261-19.571a34.46 34.46 0 0 0 7.523-4.93 34.236 34.236 0 0 0-13.96-7.246c2.609 2.871 4.816 7.051 6.437 12.176zm18.078 44.055c0-3.469-2.82-6.293-6.273-6.293a6.3 6.3 0 0 0-6.293 6.293c0 3.469 2.82 6.29 6.293 6.29 3.453.003 6.273-2.821 6.273-6.29zm-17.187-40.91c1.23 4.898 1.977 10.457 2.09 16.426H78.52a34.326 34.326 0 0 0-9.598-22.277 37.137 37.137 0 0 1-9 5.852zm1.816 24.566a22.44 22.44 0 0 1 9.098-1.93c2.547 0 4.992.453 7.28 1.235.243-1.395.392-2.79.454-4.2H61.984a84.814 84.814 0 0 1-.246 4.895zm-3.078 35.77c3.324 2.691 7.555 4.328 12.176 4.328 4.606 0 8.836-1.621 12.176-4.328-1.2-5.691-6.273-9.89-12.176-9.89-5.918 0-10.992 4.199-12.176 9.89z"></path><path d="M90.211 71.031c0-10.684-8.691-19.391-19.375-19.391-10.703 0-19.391 8.707-19.391 19.391A19.22 19.22 0 0 0 56.019 83.5c1.492-4.281 4.785-7.668 8.902-9.371a9.472 9.472 0 0 1-3.617-7.457c0-5.254 4.281-9.535 9.535-9.535s9.52 4.28 9.52 9.535a9.472 9.472 0 0 1-3.617 7.457c4.133 1.703 7.426 5.09 8.918 9.371a19.333 19.333 0 0 0 4.55-12.469z"></path></g></svg>
