<svg xmlns="http://www.w3.org/2000/svg" version="1.1" xlink="http://www.w3.org/1999/xlink" xmlns:svgjs="http://svgjs.com/svgjs" width="100%" height="100%" viewBox="2.7769994735717773 6.25 94.44599151611328 87.5040054321289"><g fill="#bd1474"><path d="M84.723 64.582H67.879c-.617-2.394-2.797-4.168-5.379-4.168s-4.762 1.773-5.379 4.168H42.88c-.617-2.394-2.797-4.168-5.379-4.168s-4.761 1.773-5.379 4.168H15.277c-5.394 0-9.722-4.371-9.722-9.723 0-5.36 4.363-9.722 9.722-9.722h5.73c.618 2.394 2.798 4.168 5.38 4.168s4.761-1.774 5.379-4.168h11.46c.618 2.394 2.798 4.168 5.38 4.168s4.761-1.774 5.378-4.168H71.64l-1.796 1.796a1.389 1.389 0 1 0 1.964 1.965c.86-.86 4.102-4.101 4.18-4.183a1.391 1.391 0 0 0-.016-1.95l-4.168-4.168a1.389 1.389 0 1 0-1.964 1.965l1.797 1.797H53.98a5.565 5.565 0 0 0-5.38-4.168 5.565 5.565 0 0 0-5.378 4.168h-11.46a5.565 5.565 0 0 0-5.38-4.168 5.565 5.565 0 0 0-5.378 4.168h-5.727c-6.894 0-12.5 5.606-12.5 12.5 0 6.922 5.606 12.5 12.5 12.5h16.844c.618 2.395 2.797 4.168 5.38 4.168s4.761-1.773 5.378-4.168h14.242c.617 2.395 2.797 4.168 5.38 4.168s4.76-1.773 5.378-4.168h16.844c5.36 0 9.723 4.363 9.723 9.723 0 5.394-4.371 9.723-9.723 9.723h-8.508a5.565 5.565 0 0 0-5.379-4.168 5.565 5.565 0 0 0-5.379 4.168H51.215a5.565 5.565 0 0 0-5.379-4.168 5.565 5.565 0 0 0-5.378 4.168h-11.29a1.391 1.391 0 0 0 0 2.78h11.286c.617 2.395 2.796 4.169 5.378 4.169s4.762-1.774 5.38-4.168h14.241c.618 2.394 2.797 4.168 5.38 4.168s4.761-1.774 5.378-4.168l8.512-.004c6.922 0 12.5-5.606 12.5-12.5 0-6.89-5.61-12.5-12.5-12.5z"></path><path d="M62.5 6.25h-2.777v32.406H62.5V6.25zm2.777 2.777h16.668v15.277H65.277z"></path><path d="M72.223 31.25h21.684l-2.168-6.504a1.408 1.408 0 0 1 0-.879l2.168-6.504-9.184-.004v8.332a1.39 1.39 0 0 1-1.39 1.391h-11.11z"></path></g></svg>
