<svg xmlns="http://www.w3.org/2000/svg" version="1.1" xlink="http://www.w3.org/1999/xlink" xmlns:svgjs="http://svgjs.com/svgjs" width="100%" height="100%" viewBox="6.089000225067139 5.550994396209717 87.81000518798828 88.89800262451172"><g fill="#197bbd"><path d="M6.09 94.449h87.809V81.64H6.089zm42.469-65.188h2.879a2.11 2.11 0 0 0 2.101-2.102V24.28a2.11 2.11 0 0 0-2.101-2.101h-2.88a2.11 2.11 0 0 0-2.1 2.101v2.88c.01 1.148.952 2.101 2.1 2.101zm7.152-18.57v-2.77a.176.176 0 0 0-.172-.171H44.461a.176.176 0 0 0-.172.171v2.77H42.09v-2.77c0-1.3 1.059-2.37 2.371-2.37H55.54a2.374 2.374 0 0 1 2.371 2.37v2.77zM31.15 22.429V14.46c0-.87.711-1.57 1.57-1.57h34.56c.87 0 1.57.71 1.57 1.57v7.969c-3.64 1.5-8.14 2.57-13.121 3.04v-1.18c0-2.36-1.93-4.29-4.29-4.29H48.56c-2.36 0-4.29 1.93-4.29 4.29v1.18c-4.98-.481-9.48-1.548-13.12-3.04zM43.192 32.82c.61 0 1.102.488 1.102 1.102 0 .609-.489 1.101-1.102 1.101L38.9 35.02c-.61 0-1.102-.488-1.102-1.101 0-.61.489-1.102 1.102-1.102zm24.47-7.602V37.14c0 .79-.65 1.442-1.442 1.442l-32.438-.004c-.79 0-1.442-.649-1.442-1.442V25.218c3.79 1.31 7.899 2.09 11.961 2.45a4.302 4.302 0 0 0 4.262 3.78h2.879a4.293 4.293 0 0 0 4.262-3.78c4.058-.36 8.168-1.137 11.957-2.45zm0 28.61v-10.61h-35.32v10.61zm8.41 12.811V56.03H23.93v10.61zM83.84 79.44V68.827H16.16v10.61z" fill-rule="evenodd"></path></g></svg>
