<svg xmlns="http://www.w3.org/2000/svg" version="1.1" xlink="http://www.w3.org/1999/xlink" xmlns:svgjs="http://svgjs.com/svgjs" width="100%" height="100%" viewBox="2.7779998779296875 8.331999778747559 94.44499969482422 83.3280029296875"><g fill="url(#SvgjsLinearGradient1000)"><path d="M88.891 8.332H11.11c-4.582 0-8.332 3.75-8.332 8.332v50c0 4.582 3.75 8.332 8.332 8.332h27.777v11.109h-5.555a2.786 2.786 0 0 0-2.777 2.777 2.786 2.786 0 0 0 2.777 2.778h33.332a2.786 2.786 0 0 0 2.778-2.778 2.786 2.786 0 0 0-2.778-2.777H61.11V74.996h27.777c4.582 0 8.332-3.75 8.332-8.332l.004-49.996c0-4.582-3.75-8.332-8.332-8.332zM55.555 86.109H44.446V75h11.109zm36.113-19.441a2.786 2.786 0 0 1-2.777 2.777H11.11a2.786 2.786 0 0 1-2.778-2.777v-50a2.786 2.786 0 0 1 2.778-2.777h77.777a2.786 2.786 0 0 1 2.777 2.777v50zM75 25H52.777v-2.777c0-1.528-1.25-2.778-2.777-2.778s-2.778 1.25-2.778 2.778V25H25a2.786 2.786 0 0 0-2.777 2.777V61.11A2.786 2.786 0 0 0 25 63.887h50a2.786 2.786 0 0 0 2.778-2.778V27.777A2.786 2.786 0 0 0 74.999 25zm-2.777 5.555v8.332l-44.445.004v-8.332h44.445zM27.778 58.332V44.44h19.445v2.777c0 1.527 1.25 2.777 2.777 2.777s2.777-1.25 2.777-2.777V44.44h19.445v13.89z"></path></g><defs><linearGradient gradientUnits="userSpaceOnUse" id="SvgjsLinearGradient1000" x1="5.5572490692138805" y1="94.43925189971924" x2="94.44375038146973" y2="5.552750587463378"><stop stop-color="#d45cef" offset="0.05"></stop><stop stop-color="#9b12ba" offset="0.95"></stop></linearGradient></defs></svg>
